<svg xmlns="http://www.w3.org/2000/svg" width="960" height="430" viewBox="0 0 960 430"><rect width="960" height="430" rx="24" fill="#111827"/><text x="48" y="52" fill="#f9fafb" font-size="24" font-family="sans-serif" font-weight="700">Block Allocation Trade-offs</text><text x="70" y="105" fill="#bfdbfe" font-size="19" font-family="sans-serif">Contiguous</text><rect x="70" y="125" width="82" height="58" rx="8" fill="#2563eb"/><rect x="158" y="125" width="82" height="58" rx="8" fill="#2563eb"/><rect x="246" y="125" width="82" height="58" rx="8" fill="#2563eb"/><text x="365" y="160" fill="#e5e7eb" font-size="17" font-family="sans-serif">fast position calculation, hard growth / fragmentation</text><text x="70" y="235" fill="#bbf7d0" font-size="19" font-family="sans-serif">Linked</text><rect x="70" y="255" width="82" height="58" rx="8" fill="#059669"/><rect x="210" y="255" width="82" height="58" rx="8" fill="#059669"/><rect x="350" y="255" width="82" height="58" rx="8" fill="#059669"/><path d="M152 284 L210 284" stroke="#6ee7b7" stroke-width="4"/><path d="M292 284 L350 284" stroke="#6ee7b7" stroke-width="4"/><text x="475" y="290" fill="#e5e7eb" font-size="17" font-family="sans-serif">flexible placement, pointer-chain random lookup</text><text x="70" y="370" fill="#fde68a" font-size="19" font-family="sans-serif">Indexed</text><rect x="170" y="342" width="100" height="56" rx="8" fill="#d97706"/><text x="188" y="376" fill="#fff7ed" font-size="16" font-family="sans-serif">index</text><path d="M270 358 L390 330" stroke="#fbbf24" stroke-width="3"/><path d="M270 370 L430 370" stroke="#fbbf24" stroke-width="3"/><path d="M270 382 L390 410" stroke="#fbbf24" stroke-width="3"/><text x="500" y="377" fill="#e5e7eb" font-size="17" font-family="sans-serif">direct lookup through metadata, index-space cost</text></svg>